<mxfile host="app.diagrams.net" modified="2023-11-20T02:13:29.678Z" agent="Mozilla/5.0 (Windows NT 10.0; Win64; x64) AppleWebKit/537.36 (KHTML, like Gecko) Chrome/119.0.0.0 Safari/537.36 Edg/119.0.0.0" etag="uEGOy_EWsCIaUB6VAc7E" version="22.1.3" type="device">
  <diagram name="第 1 页" id="hZrt-wZFdphKe_Ehkx9n">
    <mxGraphModel dx="1042" dy="535" grid="1" gridSize="10" guides="1" tooltips="1" connect="1" arrows="1" fold="1" page="1" pageScale="1" pageWidth="1169" pageHeight="1654" background="none" math="0" shadow="0">
      <root>
        <mxCell id="0" />
        <mxCell id="1" parent="0" />
        <mxCell id="aSkTq7z4yNYfcoxEfMVj-3" style="edgeStyle=orthogonalEdgeStyle;rounded=0;orthogonalLoop=1;jettySize=auto;html=1;exitX=0.5;exitY=1;exitDx=0;exitDy=0;exitPerimeter=0;entryX=0.5;entryY=0;entryDx=0;entryDy=0;" parent="1" source="aSkTq7z4yNYfcoxEfMVj-1" target="aSkTq7z4yNYfcoxEfMVj-2" edge="1">
          <mxGeometry relative="1" as="geometry" />
        </mxCell>
        <mxCell id="aSkTq7z4yNYfcoxEfMVj-1" value="year、month、day" style="strokeWidth=2;html=1;shape=mxgraph.flowchart.start_1;whiteSpace=wrap;" parent="1" vertex="1">
          <mxGeometry x="672.74" y="100" width="126" height="60" as="geometry" />
        </mxCell>
        <mxCell id="aSkTq7z4yNYfcoxEfMVj-2" value="&lt;pre style=&quot;font-family: &amp;quot;JetBrains Mono&amp;quot;, monospace; font-size: 9.8pt;&quot;&gt;&lt;span style=&quot;background-color: rgb(255, 255, 255);&quot;&gt;int[] MonthDays = &lt;br&gt;{ 31, 28, 31, 30, 31, 30, &lt;br&gt;31, 31, 30, 31, 30, 31 };&lt;/span&gt;&lt;/pre&gt;" style="rounded=0;whiteSpace=wrap;html=1;absoluteArcSize=1;arcSize=14;strokeWidth=2;" parent="1" vertex="1">
          <mxGeometry x="635.76" y="200" width="200" height="60" as="geometry" />
        </mxCell>
        <mxCell id="aSkTq7z4yNYfcoxEfMVj-7" style="edgeStyle=orthogonalEdgeStyle;rounded=0;orthogonalLoop=1;jettySize=auto;html=1;exitX=0.5;exitY=1;exitDx=0;exitDy=0;exitPerimeter=0;" parent="1" source="aSkTq7z4yNYfcoxEfMVj-4" target="aSkTq7z4yNYfcoxEfMVj-6" edge="1">
          <mxGeometry relative="1" as="geometry" />
        </mxCell>
        <mxCell id="aSkTq7z4yNYfcoxEfMVj-9" style="edgeStyle=orthogonalEdgeStyle;rounded=0;orthogonalLoop=1;jettySize=auto;html=1;exitX=1;exitY=0.5;exitDx=0;exitDy=0;exitPerimeter=0;entryX=0.5;entryY=0;entryDx=0;entryDy=0;" parent="1" source="aSkTq7z4yNYfcoxEfMVj-4" target="aSkTq7z4yNYfcoxEfMVj-8" edge="1">
          <mxGeometry relative="1" as="geometry" />
        </mxCell>
        <mxCell id="aSkTq7z4yNYfcoxEfMVj-4" value="&lt;div&gt;(((year % 4 == 0) &amp;amp;&amp;amp; (year % 100 != 0))&amp;nbsp; ||&lt;/div&gt;&lt;div&gt; year % 400 == 0)&lt;/div&gt;" style="strokeWidth=2;html=1;shape=mxgraph.flowchart.decision;whiteSpace=wrap;" parent="1" vertex="1">
          <mxGeometry x="558.26" y="310" width="355" height="70" as="geometry" />
        </mxCell>
        <mxCell id="aSkTq7z4yNYfcoxEfMVj-5" style="edgeStyle=orthogonalEdgeStyle;rounded=0;orthogonalLoop=1;jettySize=auto;html=1;exitX=0.5;exitY=1;exitDx=0;exitDy=0;entryX=0.5;entryY=0;entryDx=0;entryDy=0;entryPerimeter=0;" parent="1" source="aSkTq7z4yNYfcoxEfMVj-2" target="aSkTq7z4yNYfcoxEfMVj-4" edge="1">
          <mxGeometry relative="1" as="geometry" />
        </mxCell>
        <mxCell id="aSkTq7z4yNYfcoxEfMVj-16" style="edgeStyle=orthogonalEdgeStyle;rounded=0;orthogonalLoop=1;jettySize=auto;html=1;exitX=0;exitY=0.5;exitDx=0;exitDy=0;exitPerimeter=0;" parent="1" source="aSkTq7z4yNYfcoxEfMVj-6" target="aSkTq7z4yNYfcoxEfMVj-14" edge="1">
          <mxGeometry relative="1" as="geometry" />
        </mxCell>
        <mxCell id="aSkTq7z4yNYfcoxEfMVj-6" value="&lt;pre style=&quot;color: rgb(169, 183, 198); font-family: &amp;quot;JetBrains Mono&amp;quot;, monospace; font-size: 9.8pt;&quot;&gt;&lt;span style=&quot;background-color: transparent;&quot;&gt;&lt;font color=&quot;#000000&quot;&gt;(year &amp;lt; 0 || month &amp;lt; 0 || day &amp;lt; 0)&lt;br&gt;&lt;/font&gt;&lt;/span&gt;&lt;/pre&gt;" style="strokeWidth=2;html=1;shape=mxgraph.flowchart.decision;whiteSpace=wrap;" parent="1" vertex="1">
          <mxGeometry x="583.5" y="460" width="304.5" height="60" as="geometry" />
        </mxCell>
        <mxCell id="aSkTq7z4yNYfcoxEfMVj-8" value="MonthDays[1] = 29" style="rounded=0;whiteSpace=wrap;html=1;absoluteArcSize=1;arcSize=14;strokeWidth=2;" parent="1" vertex="1">
          <mxGeometry x="873" y="400" width="134.75" height="40" as="geometry" />
        </mxCell>
        <mxCell id="aSkTq7z4yNYfcoxEfMVj-11" style="edgeStyle=orthogonalEdgeStyle;rounded=0;orthogonalLoop=1;jettySize=auto;html=1;exitX=0;exitY=0.5;exitDx=0;exitDy=0;entryX=0.5;entryY=0;entryDx=0;entryDy=0;entryPerimeter=0;" parent="1" source="aSkTq7z4yNYfcoxEfMVj-8" target="aSkTq7z4yNYfcoxEfMVj-6" edge="1">
          <mxGeometry relative="1" as="geometry" />
        </mxCell>
        <mxCell id="aSkTq7z4yNYfcoxEfMVj-12" value="T" style="text;html=1;align=center;verticalAlign=middle;resizable=0;points=[];autosize=1;strokeColor=none;fillColor=none;" parent="1" vertex="1">
          <mxGeometry x="898" y="318" width="30" height="30" as="geometry" />
        </mxCell>
        <mxCell id="aSkTq7z4yNYfcoxEfMVj-13" value="F" style="text;html=1;align=center;verticalAlign=middle;resizable=0;points=[];autosize=1;strokeColor=none;fillColor=none;" parent="1" vertex="1">
          <mxGeometry x="717" y="380" width="30" height="30" as="geometry" />
        </mxCell>
        <mxCell id="aSkTq7z4yNYfcoxEfMVj-14" value="return 0" style="rounded=0;whiteSpace=wrap;html=1;absoluteArcSize=1;arcSize=14;strokeWidth=2;" parent="1" vertex="1">
          <mxGeometry x="443" y="470" width="90" height="40" as="geometry" />
        </mxCell>
        <mxCell id="aSkTq7z4yNYfcoxEfMVj-17" value="T" style="text;html=1;align=center;verticalAlign=middle;resizable=0;points=[];autosize=1;strokeColor=none;fillColor=none;" parent="1" vertex="1">
          <mxGeometry x="588" y="458" width="30" height="30" as="geometry" />
        </mxCell>
        <mxCell id="aSkTq7z4yNYfcoxEfMVj-20" style="edgeStyle=orthogonalEdgeStyle;rounded=0;orthogonalLoop=1;jettySize=auto;html=1;exitX=0;exitY=0.5;exitDx=0;exitDy=0;exitPerimeter=0;entryX=1;entryY=0.5;entryDx=0;entryDy=0;" parent="1" source="aSkTq7z4yNYfcoxEfMVj-18" target="aSkTq7z4yNYfcoxEfMVj-19" edge="1">
          <mxGeometry relative="1" as="geometry" />
        </mxCell>
        <mxCell id="aSkTq7z4yNYfcoxEfMVj-18" value="&lt;pre style=&quot;color: rgb(169, 183, 198); font-family: &amp;quot;JetBrains Mono&amp;quot;, monospace; font-size: 9.8pt;&quot;&gt;&lt;span style=&quot;background-color: transparent;&quot;&gt;&lt;font color=&quot;#000000&quot;&gt;year &amp;gt;10000&lt;br&gt;&lt;/font&gt;&lt;/span&gt;&lt;/pre&gt;" style="strokeWidth=2;html=1;shape=mxgraph.flowchart.decision;whiteSpace=wrap;" parent="1" vertex="1">
          <mxGeometry x="629.12" y="560" width="213.25" height="35" as="geometry" />
        </mxCell>
        <mxCell id="aSkTq7z4yNYfcoxEfMVj-19" value="return -1" style="rounded=0;whiteSpace=wrap;html=1;absoluteArcSize=1;arcSize=14;strokeWidth=2;" parent="1" vertex="1">
          <mxGeometry x="443" y="557.5" width="90" height="40" as="geometry" />
        </mxCell>
        <mxCell id="aSkTq7z4yNYfcoxEfMVj-26" style="edgeStyle=orthogonalEdgeStyle;rounded=0;orthogonalLoop=1;jettySize=auto;html=1;exitX=0;exitY=0.5;exitDx=0;exitDy=0;exitPerimeter=0;" parent="1" source="aSkTq7z4yNYfcoxEfMVj-21" target="aSkTq7z4yNYfcoxEfMVj-25" edge="1">
          <mxGeometry relative="1" as="geometry" />
        </mxCell>
        <mxCell id="aSkTq7z4yNYfcoxEfMVj-21" value="month&amp;gt;12" style="strokeWidth=2;html=1;shape=mxgraph.flowchart.decision;whiteSpace=wrap;" parent="1" vertex="1">
          <mxGeometry x="629.12" y="630" width="213.25" height="35" as="geometry" />
        </mxCell>
        <mxCell id="aSkTq7z4yNYfcoxEfMVj-22" style="edgeStyle=orthogonalEdgeStyle;rounded=0;orthogonalLoop=1;jettySize=auto;html=1;exitX=0.5;exitY=1;exitDx=0;exitDy=0;exitPerimeter=0;entryX=0.5;entryY=0;entryDx=0;entryDy=0;entryPerimeter=0;" parent="1" source="aSkTq7z4yNYfcoxEfMVj-18" target="aSkTq7z4yNYfcoxEfMVj-21" edge="1">
          <mxGeometry relative="1" as="geometry" />
        </mxCell>
        <mxCell id="aSkTq7z4yNYfcoxEfMVj-23" style="edgeStyle=orthogonalEdgeStyle;rounded=0;orthogonalLoop=1;jettySize=auto;html=1;exitX=0.5;exitY=1;exitDx=0;exitDy=0;exitPerimeter=0;entryX=0.5;entryY=0;entryDx=0;entryDy=0;entryPerimeter=0;" parent="1" source="aSkTq7z4yNYfcoxEfMVj-6" target="aSkTq7z4yNYfcoxEfMVj-18" edge="1">
          <mxGeometry relative="1" as="geometry" />
        </mxCell>
        <mxCell id="aSkTq7z4yNYfcoxEfMVj-31" style="edgeStyle=orthogonalEdgeStyle;rounded=0;orthogonalLoop=1;jettySize=auto;html=1;entryX=1;entryY=0.5;entryDx=0;entryDy=0;" parent="1" source="aSkTq7z4yNYfcoxEfMVj-24" target="aSkTq7z4yNYfcoxEfMVj-29" edge="1">
          <mxGeometry relative="1" as="geometry" />
        </mxCell>
        <mxCell id="aSkTq7z4yNYfcoxEfMVj-34" style="edgeStyle=orthogonalEdgeStyle;rounded=0;orthogonalLoop=1;jettySize=auto;html=1;exitX=0.5;exitY=1;exitDx=0;exitDy=0;exitPerimeter=0;entryX=0.5;entryY=0;entryDx=0;entryDy=0;" parent="1" source="aSkTq7z4yNYfcoxEfMVj-24" target="aSkTq7z4yNYfcoxEfMVj-33" edge="1">
          <mxGeometry relative="1" as="geometry" />
        </mxCell>
        <mxCell id="aSkTq7z4yNYfcoxEfMVj-24" value="day &amp;gt; MonthDays[month - 1]" style="strokeWidth=2;html=1;shape=mxgraph.flowchart.decision;whiteSpace=wrap;" parent="1" vertex="1">
          <mxGeometry x="623.8" y="700" width="223.88" height="40" as="geometry" />
        </mxCell>
        <mxCell id="aSkTq7z4yNYfcoxEfMVj-25" value="return -2" style="rounded=0;whiteSpace=wrap;html=1;absoluteArcSize=1;arcSize=14;strokeWidth=2;" parent="1" vertex="1">
          <mxGeometry x="443" y="627.5" width="90" height="40" as="geometry" />
        </mxCell>
        <mxCell id="aSkTq7z4yNYfcoxEfMVj-27" value="T" style="text;html=1;align=center;verticalAlign=middle;resizable=0;points=[];autosize=1;strokeColor=none;fillColor=none;" parent="1" vertex="1">
          <mxGeometry x="616" y="550" width="30" height="30" as="geometry" />
        </mxCell>
        <mxCell id="aSkTq7z4yNYfcoxEfMVj-28" value="T" style="text;html=1;align=center;verticalAlign=middle;resizable=0;points=[];autosize=1;strokeColor=none;fillColor=none;" parent="1" vertex="1">
          <mxGeometry x="618" y="615" width="30" height="30" as="geometry" />
        </mxCell>
        <mxCell id="aSkTq7z4yNYfcoxEfMVj-95" style="edgeStyle=orthogonalEdgeStyle;rounded=0;orthogonalLoop=1;jettySize=auto;html=1;exitX=0;exitY=0.5;exitDx=0;exitDy=0;" parent="1" source="aSkTq7z4yNYfcoxEfMVj-29" target="aSkTq7z4yNYfcoxEfMVj-91" edge="1">
          <mxGeometry relative="1" as="geometry" />
        </mxCell>
        <mxCell id="aSkTq7z4yNYfcoxEfMVj-29" value="return -3" style="rounded=0;whiteSpace=wrap;html=1;absoluteArcSize=1;arcSize=14;strokeWidth=2;" parent="1" vertex="1">
          <mxGeometry x="443" y="700" width="90" height="40" as="geometry" />
        </mxCell>
        <mxCell id="aSkTq7z4yNYfcoxEfMVj-30" value="T" style="text;html=1;align=center;verticalAlign=middle;resizable=0;points=[];autosize=1;strokeColor=none;fillColor=none;" parent="1" vertex="1">
          <mxGeometry x="618" y="687.5" width="30" height="30" as="geometry" />
        </mxCell>
        <mxCell id="aSkTq7z4yNYfcoxEfMVj-32" style="edgeStyle=orthogonalEdgeStyle;rounded=0;orthogonalLoop=1;jettySize=auto;html=1;exitX=0.5;exitY=1;exitDx=0;exitDy=0;exitPerimeter=0;entryX=0.5;entryY=0;entryDx=0;entryDy=0;entryPerimeter=0;" parent="1" source="aSkTq7z4yNYfcoxEfMVj-21" target="aSkTq7z4yNYfcoxEfMVj-24" edge="1">
          <mxGeometry relative="1" as="geometry" />
        </mxCell>
        <mxCell id="aSkTq7z4yNYfcoxEfMVj-33" value="&lt;div&gt;int totalDays = 0;&lt;/div&gt;&lt;div&gt;int i=1&lt;/div&gt;" style="rounded=0;whiteSpace=wrap;html=1;absoluteArcSize=1;arcSize=14;strokeWidth=2;" parent="1" vertex="1">
          <mxGeometry x="668.37" y="780" width="134.75" height="40" as="geometry" />
        </mxCell>
        <mxCell id="aSkTq7z4yNYfcoxEfMVj-53" style="edgeStyle=orthogonalEdgeStyle;rounded=0;orthogonalLoop=1;jettySize=auto;html=1;exitX=0;exitY=0.5;exitDx=0;exitDy=0;exitPerimeter=0;entryX=1;entryY=0.5;entryDx=0;entryDy=0;" parent="1" source="aSkTq7z4yNYfcoxEfMVj-35" target="aSkTq7z4yNYfcoxEfMVj-52" edge="1">
          <mxGeometry relative="1" as="geometry" />
        </mxCell>
        <mxCell id="aSkTq7z4yNYfcoxEfMVj-35" value="i&amp;lt;year" style="strokeWidth=2;html=1;shape=mxgraph.flowchart.decision;whiteSpace=wrap;" parent="1" vertex="1">
          <mxGeometry x="653.81" y="850" width="163.88" height="35" as="geometry" />
        </mxCell>
        <mxCell id="aSkTq7z4yNYfcoxEfMVj-36" style="edgeStyle=orthogonalEdgeStyle;rounded=0;orthogonalLoop=1;jettySize=auto;html=1;exitX=0.5;exitY=1;exitDx=0;exitDy=0;entryX=0.5;entryY=0;entryDx=0;entryDy=0;entryPerimeter=0;" parent="1" source="aSkTq7z4yNYfcoxEfMVj-33" target="aSkTq7z4yNYfcoxEfMVj-35" edge="1">
          <mxGeometry relative="1" as="geometry" />
        </mxCell>
        <mxCell id="aSkTq7z4yNYfcoxEfMVj-40" value="" style="edgeStyle=orthogonalEdgeStyle;rounded=0;orthogonalLoop=1;jettySize=auto;html=1;" parent="1" source="aSkTq7z4yNYfcoxEfMVj-37" target="aSkTq7z4yNYfcoxEfMVj-39" edge="1">
          <mxGeometry relative="1" as="geometry" />
        </mxCell>
        <mxCell id="aSkTq7z4yNYfcoxEfMVj-47" style="edgeStyle=orthogonalEdgeStyle;rounded=0;orthogonalLoop=1;jettySize=auto;html=1;exitX=1;exitY=0.5;exitDx=0;exitDy=0;exitPerimeter=0;" parent="1" source="aSkTq7z4yNYfcoxEfMVj-37" target="aSkTq7z4yNYfcoxEfMVj-46" edge="1">
          <mxGeometry relative="1" as="geometry" />
        </mxCell>
        <mxCell id="aSkTq7z4yNYfcoxEfMVj-37" value="&lt;div&gt;((i % 4 == 0) &amp;amp;&amp;amp; (i % 100 != 0)) &lt;br&gt;&lt;/div&gt;&lt;div&gt;|| i % 400 == 0&lt;/div&gt;" style="strokeWidth=2;html=1;shape=mxgraph.flowchart.decision;whiteSpace=wrap;" parent="1" vertex="1">
          <mxGeometry x="611.14" y="920" width="249.2" height="60" as="geometry" />
        </mxCell>
        <mxCell id="aSkTq7z4yNYfcoxEfMVj-38" style="edgeStyle=orthogonalEdgeStyle;rounded=0;orthogonalLoop=1;jettySize=auto;html=1;exitX=0.5;exitY=1;exitDx=0;exitDy=0;exitPerimeter=0;entryX=0.5;entryY=0;entryDx=0;entryDy=0;entryPerimeter=0;" parent="1" source="aSkTq7z4yNYfcoxEfMVj-35" target="aSkTq7z4yNYfcoxEfMVj-37" edge="1">
          <mxGeometry relative="1" as="geometry" />
        </mxCell>
        <mxCell id="aSkTq7z4yNYfcoxEfMVj-49" value="" style="edgeStyle=orthogonalEdgeStyle;rounded=0;orthogonalLoop=1;jettySize=auto;html=1;" parent="1" source="aSkTq7z4yNYfcoxEfMVj-39" target="aSkTq7z4yNYfcoxEfMVj-48" edge="1">
          <mxGeometry relative="1" as="geometry" />
        </mxCell>
        <mxCell id="aSkTq7z4yNYfcoxEfMVj-39" value="totalDays += 366;" style="whiteSpace=wrap;html=1;strokeWidth=2;" parent="1" vertex="1">
          <mxGeometry x="677.13" y="1020" width="117.25" height="40" as="geometry" />
        </mxCell>
        <mxCell id="aSkTq7z4yNYfcoxEfMVj-45" value="T" style="text;html=1;align=center;verticalAlign=middle;resizable=0;points=[];autosize=1;strokeColor=none;fillColor=none;" parent="1" vertex="1">
          <mxGeometry x="708" y="980" width="30" height="30" as="geometry" />
        </mxCell>
        <mxCell id="aSkTq7z4yNYfcoxEfMVj-50" style="edgeStyle=orthogonalEdgeStyle;rounded=0;orthogonalLoop=1;jettySize=auto;html=1;exitX=0.5;exitY=1;exitDx=0;exitDy=0;entryX=0.5;entryY=0;entryDx=0;entryDy=0;" parent="1" source="aSkTq7z4yNYfcoxEfMVj-46" target="aSkTq7z4yNYfcoxEfMVj-48" edge="1">
          <mxGeometry relative="1" as="geometry" />
        </mxCell>
        <mxCell id="aSkTq7z4yNYfcoxEfMVj-46" value="totalDays += 365;" style="whiteSpace=wrap;html=1;strokeWidth=2;" parent="1" vertex="1">
          <mxGeometry x="823" y="1020" width="117.25" height="40" as="geometry" />
        </mxCell>
        <mxCell id="aSkTq7z4yNYfcoxEfMVj-48" value="i++" style="whiteSpace=wrap;html=1;strokeWidth=2;" parent="1" vertex="1">
          <mxGeometry x="764.3299999999999" y="1100" width="96.01" height="30" as="geometry" />
        </mxCell>
        <mxCell id="aSkTq7z4yNYfcoxEfMVj-51" style="edgeStyle=orthogonalEdgeStyle;rounded=0;orthogonalLoop=1;jettySize=auto;html=1;exitX=1;exitY=0.5;exitDx=0;exitDy=0;entryX=1;entryY=0.5;entryDx=0;entryDy=0;entryPerimeter=0;" parent="1" source="aSkTq7z4yNYfcoxEfMVj-48" target="aSkTq7z4yNYfcoxEfMVj-35" edge="1">
          <mxGeometry relative="1" as="geometry">
            <Array as="points">
              <mxPoint x="963" y="1115" />
              <mxPoint x="963" y="868" />
            </Array>
          </mxGeometry>
        </mxCell>
        <mxCell id="aSkTq7z4yNYfcoxEfMVj-56" value="" style="edgeStyle=orthogonalEdgeStyle;rounded=0;orthogonalLoop=1;jettySize=auto;html=1;" parent="1" source="aSkTq7z4yNYfcoxEfMVj-52" target="aSkTq7z4yNYfcoxEfMVj-55" edge="1">
          <mxGeometry relative="1" as="geometry" />
        </mxCell>
        <mxCell id="aSkTq7z4yNYfcoxEfMVj-52" value="int i=1" style="whiteSpace=wrap;html=1;strokeWidth=2;" parent="1" vertex="1">
          <mxGeometry x="372.5" y="852.5" width="96.01" height="30" as="geometry" />
        </mxCell>
        <mxCell id="aSkTq7z4yNYfcoxEfMVj-54" value="F" style="text;html=1;align=center;verticalAlign=middle;resizable=0;points=[];autosize=1;strokeColor=none;fillColor=none;" parent="1" vertex="1">
          <mxGeometry x="638.37" y="838" width="30" height="30" as="geometry" />
        </mxCell>
        <mxCell id="aSkTq7z4yNYfcoxEfMVj-62" style="edgeStyle=orthogonalEdgeStyle;rounded=0;orthogonalLoop=1;jettySize=auto;html=1;exitX=0.5;exitY=1;exitDx=0;exitDy=0;" parent="1" source="aSkTq7z4yNYfcoxEfMVj-55" target="aSkTq7z4yNYfcoxEfMVj-61" edge="1">
          <mxGeometry relative="1" as="geometry" />
        </mxCell>
        <mxCell id="aSkTq7z4yNYfcoxEfMVj-80" value="" style="edgeStyle=orthogonalEdgeStyle;rounded=0;orthogonalLoop=1;jettySize=auto;html=1;" parent="1" source="aSkTq7z4yNYfcoxEfMVj-55" target="aSkTq7z4yNYfcoxEfMVj-79" edge="1">
          <mxGeometry relative="1" as="geometry" />
        </mxCell>
        <mxCell id="aSkTq7z4yNYfcoxEfMVj-55" value="i &amp;lt; month" style="rhombus;whiteSpace=wrap;html=1;strokeWidth=2;" parent="1" vertex="1">
          <mxGeometry x="364.51" y="933.75" width="112" height="32.5" as="geometry" />
        </mxCell>
        <mxCell id="aSkTq7z4yNYfcoxEfMVj-67" value="" style="edgeStyle=orthogonalEdgeStyle;rounded=0;orthogonalLoop=1;jettySize=auto;html=1;" parent="1" source="aSkTq7z4yNYfcoxEfMVj-57" target="aSkTq7z4yNYfcoxEfMVj-64" edge="1">
          <mxGeometry relative="1" as="geometry" />
        </mxCell>
        <mxCell id="aSkTq7z4yNYfcoxEfMVj-74" style="edgeStyle=orthogonalEdgeStyle;rounded=0;orthogonalLoop=1;jettySize=auto;html=1;exitX=1;exitY=0.5;exitDx=0;exitDy=0;entryX=0.5;entryY=0;entryDx=0;entryDy=0;" parent="1" source="aSkTq7z4yNYfcoxEfMVj-57" target="aSkTq7z4yNYfcoxEfMVj-69" edge="1">
          <mxGeometry relative="1" as="geometry" />
        </mxCell>
        <mxCell id="aSkTq7z4yNYfcoxEfMVj-57" value="&lt;div&gt;((year % 4 == 0) &lt;br&gt;&lt;/div&gt;&lt;div&gt;&amp;amp;&amp;amp; (year % 100 != 0)) &lt;br&gt;&lt;/div&gt;&lt;div&gt;|| year % 400 == 0&lt;/div&gt;" style="rhombus;whiteSpace=wrap;html=1;strokeWidth=2;" parent="1" vertex="1">
          <mxGeometry x="330" y="1045" width="180" height="70" as="geometry" />
        </mxCell>
        <mxCell id="aSkTq7z4yNYfcoxEfMVj-63" value="" style="edgeStyle=orthogonalEdgeStyle;rounded=0;orthogonalLoop=1;jettySize=auto;html=1;" parent="1" source="aSkTq7z4yNYfcoxEfMVj-61" target="aSkTq7z4yNYfcoxEfMVj-57" edge="1">
          <mxGeometry relative="1" as="geometry" />
        </mxCell>
        <mxCell id="aSkTq7z4yNYfcoxEfMVj-61" value="i==2" style="rhombus;whiteSpace=wrap;html=1;strokeWidth=2;" parent="1" vertex="1">
          <mxGeometry x="366.01" y="997.5" width="107.99" height="22.5" as="geometry" />
        </mxCell>
        <mxCell id="aSkTq7z4yNYfcoxEfMVj-75" style="edgeStyle=orthogonalEdgeStyle;rounded=0;orthogonalLoop=1;jettySize=auto;html=1;exitX=0.5;exitY=1;exitDx=0;exitDy=0;" parent="1" source="aSkTq7z4yNYfcoxEfMVj-64" target="aSkTq7z4yNYfcoxEfMVj-69" edge="1">
          <mxGeometry relative="1" as="geometry" />
        </mxCell>
        <mxCell id="aSkTq7z4yNYfcoxEfMVj-64" value="MonthDays[1] = 29;" style="whiteSpace=wrap;html=1;strokeWidth=2;" parent="1" vertex="1">
          <mxGeometry x="363.5" y="1140" width="113.01" height="30" as="geometry" />
        </mxCell>
        <mxCell id="aSkTq7z4yNYfcoxEfMVj-68" value="T" style="text;html=1;align=center;verticalAlign=middle;resizable=0;points=[];autosize=1;strokeColor=none;fillColor=none;" parent="1" vertex="1">
          <mxGeometry x="390" y="1090" width="30" height="30" as="geometry" />
        </mxCell>
        <mxCell id="aSkTq7z4yNYfcoxEfMVj-77" style="edgeStyle=orthogonalEdgeStyle;rounded=0;orthogonalLoop=1;jettySize=auto;html=1;exitX=0.5;exitY=1;exitDx=0;exitDy=0;entryX=0.5;entryY=0;entryDx=0;entryDy=0;" parent="1" source="aSkTq7z4yNYfcoxEfMVj-69" target="aSkTq7z4yNYfcoxEfMVj-76" edge="1">
          <mxGeometry relative="1" as="geometry" />
        </mxCell>
        <mxCell id="aSkTq7z4yNYfcoxEfMVj-69" value="totalDays += MonthDays[i - 1]" style="whiteSpace=wrap;html=1;strokeWidth=2;" parent="1" vertex="1">
          <mxGeometry x="403.75" y="1200" width="168.5" height="30" as="geometry" />
        </mxCell>
        <mxCell id="aSkTq7z4yNYfcoxEfMVj-70" value="F" style="text;html=1;align=center;verticalAlign=middle;resizable=0;points=[];autosize=1;strokeColor=none;fillColor=none;" parent="1" vertex="1">
          <mxGeometry x="495" y="1056" width="30" height="30" as="geometry" />
        </mxCell>
        <mxCell id="aSkTq7z4yNYfcoxEfMVj-78" style="edgeStyle=orthogonalEdgeStyle;rounded=0;orthogonalLoop=1;jettySize=auto;html=1;exitX=1;exitY=0.5;exitDx=0;exitDy=0;entryX=1;entryY=0.5;entryDx=0;entryDy=0;" parent="1" source="aSkTq7z4yNYfcoxEfMVj-76" target="aSkTq7z4yNYfcoxEfMVj-55" edge="1">
          <mxGeometry relative="1" as="geometry">
            <Array as="points">
              <mxPoint x="590" y="1275" />
              <mxPoint x="590" y="950" />
            </Array>
          </mxGeometry>
        </mxCell>
        <mxCell id="aSkTq7z4yNYfcoxEfMVj-76" value="i++" style="whiteSpace=wrap;html=1;strokeWidth=2;" parent="1" vertex="1">
          <mxGeometry x="439.98999999999995" y="1260" width="96.01" height="30" as="geometry" />
        </mxCell>
        <mxCell id="aSkTq7z4yNYfcoxEfMVj-83" value="" style="edgeStyle=orthogonalEdgeStyle;rounded=0;orthogonalLoop=1;jettySize=auto;html=1;" parent="1" source="aSkTq7z4yNYfcoxEfMVj-79" target="aSkTq7z4yNYfcoxEfMVj-82" edge="1">
          <mxGeometry relative="1" as="geometry" />
        </mxCell>
        <mxCell id="aSkTq7z4yNYfcoxEfMVj-79" value="&lt;div&gt;totalDays += day&lt;/div&gt;&lt;div&gt;int tempDay = totalDays % 7;&lt;br&gt;&lt;/div&gt;" style="whiteSpace=wrap;html=1;strokeWidth=2;" parent="1" vertex="1">
          <mxGeometry x="140" y="925" width="168.51" height="50" as="geometry" />
        </mxCell>
        <mxCell id="aSkTq7z4yNYfcoxEfMVj-85" value="" style="edgeStyle=orthogonalEdgeStyle;rounded=0;orthogonalLoop=1;jettySize=auto;html=1;" parent="1" source="aSkTq7z4yNYfcoxEfMVj-82" target="aSkTq7z4yNYfcoxEfMVj-84" edge="1">
          <mxGeometry relative="1" as="geometry" />
        </mxCell>
        <mxCell id="aSkTq7z4yNYfcoxEfMVj-89" style="edgeStyle=orthogonalEdgeStyle;rounded=0;orthogonalLoop=1;jettySize=auto;html=1;exitX=0;exitY=0.5;exitDx=0;exitDy=0;entryX=0.5;entryY=0;entryDx=0;entryDy=0;" parent="1" source="aSkTq7z4yNYfcoxEfMVj-82" target="aSkTq7z4yNYfcoxEfMVj-86" edge="1">
          <mxGeometry relative="1" as="geometry">
            <Array as="points">
              <mxPoint x="140" y="1040" />
              <mxPoint x="140" y="1150" />
              <mxPoint x="224" y="1150" />
            </Array>
          </mxGeometry>
        </mxCell>
        <mxCell id="aSkTq7z4yNYfcoxEfMVj-82" value="tempDay==0" style="rhombus;whiteSpace=wrap;html=1;strokeWidth=2;" parent="1" vertex="1">
          <mxGeometry x="181.38" y="1015" width="85.75" height="50" as="geometry" />
        </mxCell>
        <mxCell id="aSkTq7z4yNYfcoxEfMVj-87" value="" style="edgeStyle=orthogonalEdgeStyle;rounded=0;orthogonalLoop=1;jettySize=auto;html=1;" parent="1" source="aSkTq7z4yNYfcoxEfMVj-84" target="aSkTq7z4yNYfcoxEfMVj-86" edge="1">
          <mxGeometry relative="1" as="geometry" />
        </mxCell>
        <mxCell id="aSkTq7z4yNYfcoxEfMVj-84" value="tempDay = 7" style="whiteSpace=wrap;html=1;strokeWidth=2;" parent="1" vertex="1">
          <mxGeometry x="161.38" y="1100" width="125.75" height="30" as="geometry" />
        </mxCell>
        <mxCell id="aSkTq7z4yNYfcoxEfMVj-86" value="return tempDay" style="whiteSpace=wrap;html=1;strokeWidth=2;" parent="1" vertex="1">
          <mxGeometry x="161.38" y="1180" width="125.75" height="30" as="geometry" />
        </mxCell>
        <mxCell id="aSkTq7z4yNYfcoxEfMVj-88" value="T" style="text;html=1;align=center;verticalAlign=middle;resizable=0;points=[];autosize=1;strokeColor=none;fillColor=none;" parent="1" vertex="1">
          <mxGeometry x="220" y="1065" width="30" height="30" as="geometry" />
        </mxCell>
        <mxCell id="aSkTq7z4yNYfcoxEfMVj-90" value="F" style="text;html=1;align=center;verticalAlign=middle;resizable=0;points=[];autosize=1;strokeColor=none;fillColor=none;" parent="1" vertex="1">
          <mxGeometry x="161.38" y="1015" width="30" height="30" as="geometry" />
        </mxCell>
        <mxCell id="aSkTq7z4yNYfcoxEfMVj-91" value="&lt;div&gt;end&lt;/div&gt;" style="strokeWidth=2;html=1;shape=mxgraph.flowchart.terminator;whiteSpace=wrap;" parent="1" vertex="1">
          <mxGeometry x="80" y="665" width="70" height="35" as="geometry" />
        </mxCell>
        <mxCell id="aSkTq7z4yNYfcoxEfMVj-92" style="edgeStyle=orthogonalEdgeStyle;rounded=0;orthogonalLoop=1;jettySize=auto;html=1;exitX=0;exitY=0.5;exitDx=0;exitDy=0;entryX=0.5;entryY=0;entryDx=0;entryDy=0;entryPerimeter=0;" parent="1" source="aSkTq7z4yNYfcoxEfMVj-14" target="aSkTq7z4yNYfcoxEfMVj-91" edge="1">
          <mxGeometry relative="1" as="geometry" />
        </mxCell>
        <mxCell id="aSkTq7z4yNYfcoxEfMVj-93" style="edgeStyle=orthogonalEdgeStyle;rounded=0;orthogonalLoop=1;jettySize=auto;html=1;exitX=0;exitY=0.5;exitDx=0;exitDy=0;entryX=0.5;entryY=0;entryDx=0;entryDy=0;entryPerimeter=0;" parent="1" source="aSkTq7z4yNYfcoxEfMVj-19" target="aSkTq7z4yNYfcoxEfMVj-91" edge="1">
          <mxGeometry relative="1" as="geometry" />
        </mxCell>
        <mxCell id="aSkTq7z4yNYfcoxEfMVj-94" style="edgeStyle=orthogonalEdgeStyle;rounded=0;orthogonalLoop=1;jettySize=auto;html=1;exitX=0;exitY=0.5;exitDx=0;exitDy=0;entryX=1;entryY=0.5;entryDx=0;entryDy=0;entryPerimeter=0;" parent="1" source="aSkTq7z4yNYfcoxEfMVj-25" target="aSkTq7z4yNYfcoxEfMVj-91" edge="1">
          <mxGeometry relative="1" as="geometry" />
        </mxCell>
        <mxCell id="aSkTq7z4yNYfcoxEfMVj-96" style="edgeStyle=orthogonalEdgeStyle;rounded=0;orthogonalLoop=1;jettySize=auto;html=1;exitX=0;exitY=0.5;exitDx=0;exitDy=0;entryX=0.5;entryY=1;entryDx=0;entryDy=0;entryPerimeter=0;" parent="1" source="aSkTq7z4yNYfcoxEfMVj-86" target="aSkTq7z4yNYfcoxEfMVj-91" edge="1">
          <mxGeometry relative="1" as="geometry" />
        </mxCell>
        <mxCell id="aSkTq7z4yNYfcoxEfMVj-97" value="F" style="text;html=1;align=center;verticalAlign=middle;resizable=0;points=[];autosize=1;strokeColor=none;fillColor=none;" parent="1" vertex="1">
          <mxGeometry x="730" y="520" width="30" height="30" as="geometry" />
        </mxCell>
        <mxCell id="aSkTq7z4yNYfcoxEfMVj-98" value="F" style="text;html=1;align=center;verticalAlign=middle;resizable=0;points=[];autosize=1;strokeColor=none;fillColor=none;" parent="1" vertex="1">
          <mxGeometry x="730" y="595" width="30" height="30" as="geometry" />
        </mxCell>
        <mxCell id="aSkTq7z4yNYfcoxEfMVj-99" value="F" style="text;html=1;align=center;verticalAlign=middle;resizable=0;points=[];autosize=1;strokeColor=none;fillColor=none;" parent="1" vertex="1">
          <mxGeometry x="730" y="665" width="30" height="30" as="geometry" />
        </mxCell>
        <mxCell id="aSkTq7z4yNYfcoxEfMVj-100" value="F" style="text;html=1;align=center;verticalAlign=middle;resizable=0;points=[];autosize=1;strokeColor=none;fillColor=none;" parent="1" vertex="1">
          <mxGeometry x="730" y="740" width="30" height="30" as="geometry" />
        </mxCell>
        <mxCell id="aSkTq7z4yNYfcoxEfMVj-101" value="T" style="text;html=1;align=center;verticalAlign=middle;resizable=0;points=[];autosize=1;strokeColor=none;fillColor=none;" parent="1" vertex="1">
          <mxGeometry x="729" y="878.5" width="30" height="30" as="geometry" />
        </mxCell>
        <mxCell id="aSkTq7z4yNYfcoxEfMVj-102" value="F" style="text;html=1;align=center;verticalAlign=middle;resizable=0;points=[];autosize=1;strokeColor=none;fillColor=none;" parent="1" vertex="1">
          <mxGeometry x="838" y="924" width="30" height="30" as="geometry" />
        </mxCell>
        <mxCell id="aSkTq7z4yNYfcoxEfMVj-103" value="F" style="text;html=1;align=center;verticalAlign=middle;resizable=0;points=[];autosize=1;strokeColor=none;fillColor=none;" parent="1" vertex="1">
          <mxGeometry x="355" y="923" width="30" height="30" as="geometry" />
        </mxCell>
        <mxCell id="aSkTq7z4yNYfcoxEfMVj-104" value="T" style="text;html=1;align=center;verticalAlign=middle;resizable=0;points=[];autosize=1;strokeColor=none;fillColor=none;" parent="1" vertex="1">
          <mxGeometry x="415" y="958" width="30" height="30" as="geometry" />
        </mxCell>
        <mxCell id="aSkTq7z4yNYfcoxEfMVj-105" value="T" style="text;html=1;align=center;verticalAlign=middle;resizable=0;points=[];autosize=1;strokeColor=none;fillColor=none;" parent="1" vertex="1">
          <mxGeometry x="411" y="1013" width="30" height="30" as="geometry" />
        </mxCell>
        <mxCell id="aSkTq7z4yNYfcoxEfMVj-106" value="T" style="text;html=1;align=center;verticalAlign=middle;resizable=0;points=[];autosize=1;strokeColor=none;fillColor=none;" parent="1" vertex="1">
          <mxGeometry x="412" y="1108" width="30" height="30" as="geometry" />
        </mxCell>
        <mxCell id="aSkTq7z4yNYfcoxEfMVj-107" value="&lt;font style=&quot;font-size: 16px;&quot; color=&quot;#FF0000&quot;&gt;&lt;b&gt;1&lt;/b&gt;&lt;/font&gt;" style="text;html=1;align=center;verticalAlign=middle;resizable=0;points=[];autosize=1;strokeColor=none;fillColor=none;rounded=0;" parent="1" vertex="1">
          <mxGeometry x="729" y="160" width="30" height="30" as="geometry" />
        </mxCell>
        <mxCell id="aSkTq7z4yNYfcoxEfMVj-109" value="&lt;font style=&quot;font-size: 16px;&quot; color=&quot;#FF0000&quot;&gt;&lt;b&gt;2&lt;/b&gt;&lt;/font&gt;" style="text;whiteSpace=wrap;html=1;" parent="1" vertex="1">
          <mxGeometry x="738" y="270" width="22" height="30" as="geometry" />
        </mxCell>
        <mxCell id="aSkTq7z4yNYfcoxEfMVj-110" value="&lt;font style=&quot;font-size: 16px;&quot; color=&quot;#FF0000&quot;&gt;&lt;b&gt;3&lt;/b&gt;&lt;/font&gt;" style="text;whiteSpace=wrap;html=1;" parent="1" vertex="1">
          <mxGeometry x="940.25" y="350" width="22" height="30" as="geometry" />
        </mxCell>
        <mxCell id="aSkTq7z4yNYfcoxEfMVj-111" value="&lt;font style=&quot;font-size: 16px;&quot; color=&quot;#FF0000&quot;&gt;&lt;b&gt;4&lt;/b&gt;&lt;/font&gt;" style="text;whiteSpace=wrap;html=1;" parent="1" vertex="1">
          <mxGeometry x="738" y="390" width="22" height="30" as="geometry" />
        </mxCell>
        <mxCell id="aSkTq7z4yNYfcoxEfMVj-115" value="&lt;font style=&quot;font-size: 16px;&quot; color=&quot;#FF0000&quot;&gt;&lt;b&gt;5&lt;/b&gt;&lt;/font&gt;" style="text;whiteSpace=wrap;html=1;" parent="1" vertex="1">
          <mxGeometry x="806.12" y="396" width="22" height="30" as="geometry" />
        </mxCell>
        <mxCell id="aSkTq7z4yNYfcoxEfMVj-117" value="&lt;font style=&quot;font-size: 16px;&quot; color=&quot;#FF0000&quot;&gt;&lt;b&gt;6&lt;/b&gt;&lt;/font&gt;" style="text;whiteSpace=wrap;html=1;" parent="1" vertex="1">
          <mxGeometry x="558.26" y="460" width="22" height="30" as="geometry" />
        </mxCell>
        <mxCell id="aSkTq7z4yNYfcoxEfMVj-119" value="&lt;font style=&quot;font-size: 16px;&quot; color=&quot;#FF0000&quot;&gt;&lt;b&gt;7&lt;/b&gt;&lt;/font&gt;" style="text;whiteSpace=wrap;html=1;" parent="1" vertex="1">
          <mxGeometry x="300" y="460" width="22" height="30" as="geometry" />
        </mxCell>
        <mxCell id="aSkTq7z4yNYfcoxEfMVj-121" value="&lt;font style=&quot;font-size: 16px;&quot; color=&quot;#FF0000&quot;&gt;&lt;b&gt;8&lt;/b&gt;&lt;/font&gt;" style="text;whiteSpace=wrap;html=1;" parent="1" vertex="1">
          <mxGeometry x="721" y="520" width="22" height="30" as="geometry" />
        </mxCell>
        <mxCell id="aSkTq7z4yNYfcoxEfMVj-122" value="&lt;font style=&quot;font-size: 16px;&quot; color=&quot;#FF0000&quot;&gt;&lt;b&gt;9&lt;/b&gt;&lt;/font&gt;" style="text;whiteSpace=wrap;html=1;" parent="1" vertex="1">
          <mxGeometry x="572.25" y="550" width="22" height="30" as="geometry" />
        </mxCell>
        <mxCell id="aSkTq7z4yNYfcoxEfMVj-123" value="&lt;font style=&quot;font-size: 16px;&quot; color=&quot;#FF0000&quot;&gt;&lt;b&gt;10&lt;/b&gt;&lt;/font&gt;" style="text;whiteSpace=wrap;html=1;" parent="1" vertex="1">
          <mxGeometry x="300" y="550" width="22" height="30" as="geometry" />
        </mxCell>
        <mxCell id="aSkTq7z4yNYfcoxEfMVj-124" value="&lt;font style=&quot;font-size: 16px;&quot; color=&quot;#FF0000&quot;&gt;&lt;b&gt;11&lt;/b&gt;&lt;/font&gt;" style="text;whiteSpace=wrap;html=1;" parent="1" vertex="1">
          <mxGeometry x="712" y="595" width="22" height="30" as="geometry" />
        </mxCell>
        <mxCell id="aSkTq7z4yNYfcoxEfMVj-126" value="&lt;font style=&quot;font-size: 16px;&quot; color=&quot;#FF0000&quot;&gt;&lt;b&gt;12&lt;/b&gt;&lt;/font&gt;" style="text;whiteSpace=wrap;html=1;" parent="1" vertex="1">
          <mxGeometry x="566" y="625" width="22" height="30" as="geometry" />
        </mxCell>
        <mxCell id="aSkTq7z4yNYfcoxEfMVj-127" value="&lt;font style=&quot;font-size: 16px;&quot; color=&quot;#FF0000&quot;&gt;&lt;b&gt;13&lt;/b&gt;&lt;/font&gt;" style="text;whiteSpace=wrap;html=1;" parent="1" vertex="1">
          <mxGeometry x="344.01" y="625" width="22" height="30" as="geometry" />
        </mxCell>
        <mxCell id="aSkTq7z4yNYfcoxEfMVj-128" value="&lt;font style=&quot;font-size: 16px;&quot; color=&quot;#FF0000&quot;&gt;&lt;b&gt;14&lt;/b&gt;&lt;/font&gt;" style="text;whiteSpace=wrap;html=1;" parent="1" vertex="1">
          <mxGeometry x="714" y="666.5" width="22" height="30" as="geometry" />
        </mxCell>
        <mxCell id="aSkTq7z4yNYfcoxEfMVj-129" value="&lt;font style=&quot;font-size: 16px;&quot; color=&quot;#FF0000&quot;&gt;&lt;b&gt;15&lt;/b&gt;&lt;/font&gt;" style="text;whiteSpace=wrap;html=1;" parent="1" vertex="1">
          <mxGeometry x="566" y="693.5" width="22" height="30" as="geometry" />
        </mxCell>
        <mxCell id="aSkTq7z4yNYfcoxEfMVj-130" value="&lt;font style=&quot;font-size: 16px;&quot; color=&quot;#FF0000&quot;&gt;&lt;b&gt;16&lt;/b&gt;&lt;/font&gt;" style="text;whiteSpace=wrap;html=1;" parent="1" vertex="1">
          <mxGeometry x="344.01" y="693.5" width="22" height="30" as="geometry" />
        </mxCell>
        <mxCell id="aSkTq7z4yNYfcoxEfMVj-131" value="&lt;font style=&quot;font-size: 16px;&quot; color=&quot;#FF0000&quot;&gt;&lt;b&gt;17&lt;/b&gt;&lt;/font&gt;" style="text;whiteSpace=wrap;html=1;" parent="1" vertex="1">
          <mxGeometry x="716" y="740" width="22" height="30" as="geometry" />
        </mxCell>
        <mxCell id="aSkTq7z4yNYfcoxEfMVj-132" value="&lt;font style=&quot;font-size: 16px;&quot; color=&quot;#FF0000&quot;&gt;&lt;b&gt;18&lt;/b&gt;&lt;/font&gt;" style="text;whiteSpace=wrap;html=1;" parent="1" vertex="1">
          <mxGeometry x="712" y="820" width="22" height="30" as="geometry" />
        </mxCell>
        <mxCell id="aSkTq7z4yNYfcoxEfMVj-133" value="&lt;font style=&quot;font-size: 16px;&quot; color=&quot;#FF0000&quot;&gt;&lt;b&gt;19&lt;/b&gt;&lt;/font&gt;" style="text;whiteSpace=wrap;html=1;" parent="1" vertex="1">
          <mxGeometry x="714" y="885" width="22" height="30" as="geometry" />
        </mxCell>
        <mxCell id="aSkTq7z4yNYfcoxEfMVj-136" value="&lt;font style=&quot;font-size: 16px;&quot; color=&quot;#FF0000&quot;&gt;&lt;b&gt;20&lt;/b&gt;&lt;/font&gt;" style="text;whiteSpace=wrap;html=1;" parent="1" vertex="1">
          <mxGeometry x="736" y="980" width="22" height="30" as="geometry" />
        </mxCell>
        <mxCell id="aSkTq7z4yNYfcoxEfMVj-137" value="&lt;font style=&quot;font-size: 16px;&quot; color=&quot;#FF0000&quot;&gt;&lt;b&gt;21&lt;/b&gt;&lt;/font&gt;" style="text;whiteSpace=wrap;html=1;" parent="1" vertex="1">
          <mxGeometry x="760" y="1056" width="22" height="30" as="geometry" />
        </mxCell>
        <mxCell id="aSkTq7z4yNYfcoxEfMVj-138" value="&lt;font style=&quot;font-size: 16px;&quot; color=&quot;#FF0000&quot;&gt;&lt;b&gt;25&lt;/b&gt;&lt;/font&gt;" style="text;whiteSpace=wrap;html=1;" parent="1" vertex="1">
          <mxGeometry x="558.26" y="838" width="22" height="30" as="geometry" />
        </mxCell>
        <mxCell id="aSkTq7z4yNYfcoxEfMVj-139" value="&lt;font style=&quot;font-size: 16px;&quot; color=&quot;#FF0000&quot;&gt;&lt;b&gt;22&lt;/b&gt;&lt;/font&gt;" style="text;whiteSpace=wrap;html=1;" parent="1" vertex="1">
          <mxGeometry x="860.3399999999999" y="958" width="22" height="30" as="geometry" />
        </mxCell>
        <mxCell id="aSkTq7z4yNYfcoxEfMVj-140" value="&lt;font style=&quot;font-size: 16px;&quot; color=&quot;#FF0000&quot;&gt;&lt;b&gt;23&lt;/b&gt;&lt;/font&gt;" style="text;whiteSpace=wrap;html=1;" parent="1" vertex="1">
          <mxGeometry x="850.9999999999999" y="1056" width="22" height="30" as="geometry" />
        </mxCell>
        <mxCell id="aSkTq7z4yNYfcoxEfMVj-141" value="&lt;font style=&quot;font-size: 16px;&quot; color=&quot;#FF0000&quot;&gt;&lt;b&gt;24&lt;/b&gt;&lt;/font&gt;" style="text;whiteSpace=wrap;html=1;" parent="1" vertex="1">
          <mxGeometry x="962.2499999999999" y="980" width="22" height="30" as="geometry" />
        </mxCell>
        <mxCell id="aSkTq7z4yNYfcoxEfMVj-142" value="&lt;font style=&quot;font-size: 16px;&quot; color=&quot;#FF0000&quot;&gt;&lt;b&gt;26&lt;/b&gt;&lt;/font&gt;" style="text;whiteSpace=wrap;html=1;" parent="1" vertex="1">
          <mxGeometry x="422.99999999999994" y="893" width="22" height="30" as="geometry" />
        </mxCell>
        <mxCell id="aSkTq7z4yNYfcoxEfMVj-143" value="&lt;font style=&quot;font-size: 16px;&quot; color=&quot;#FF0000&quot;&gt;&lt;b&gt;27&lt;/b&gt;&lt;/font&gt;" style="text;whiteSpace=wrap;html=1;" parent="1" vertex="1">
          <mxGeometry x="397.99999999999994" y="966.25" width="22" height="30" as="geometry" />
        </mxCell>
        <mxCell id="aSkTq7z4yNYfcoxEfMVj-146" value="&lt;font style=&quot;font-size: 16px;&quot; color=&quot;#FF0000&quot;&gt;&lt;b&gt;28&lt;/b&gt;&lt;/font&gt;" style="text;whiteSpace=wrap;html=1;" parent="1" vertex="1">
          <mxGeometry x="397.99999999999994" y="1015" width="22" height="30" as="geometry" />
        </mxCell>
        <mxCell id="aSkTq7z4yNYfcoxEfMVj-147" value="&lt;font style=&quot;font-size: 16px;&quot; color=&quot;#FF0000&quot;&gt;&lt;b&gt;29&lt;/b&gt;&lt;/font&gt;" style="text;whiteSpace=wrap;html=1;" parent="1" vertex="1">
          <mxGeometry x="397.99999999999994" y="1110" width="22" height="30" as="geometry" />
        </mxCell>
        <mxCell id="aSkTq7z4yNYfcoxEfMVj-148" value="&lt;font style=&quot;font-size: 16px;&quot; color=&quot;#FF0000&quot;&gt;&lt;b&gt;30&lt;/b&gt;&lt;/font&gt;" style="text;whiteSpace=wrap;html=1;" parent="1" vertex="1">
          <mxGeometry x="400.99999999999994" y="1170" width="22" height="30" as="geometry" />
        </mxCell>
        <mxCell id="aSkTq7z4yNYfcoxEfMVj-149" value="&lt;font style=&quot;font-size: 16px;&quot; color=&quot;#FF0000&quot;&gt;&lt;b&gt;31&lt;/b&gt;&lt;/font&gt;" style="text;whiteSpace=wrap;html=1;" parent="1" vertex="1">
          <mxGeometry x="533" y="1120" width="22" height="30" as="geometry" />
        </mxCell>
        <mxCell id="aSkTq7z4yNYfcoxEfMVj-151" value="&lt;font style=&quot;font-size: 16px;&quot; color=&quot;#FF0000&quot;&gt;&lt;b&gt;32&lt;/b&gt;&lt;/font&gt;" style="text;whiteSpace=wrap;html=1;" parent="1" vertex="1">
          <mxGeometry x="487" y="1226" width="22" height="30" as="geometry" />
        </mxCell>
        <mxCell id="aSkTq7z4yNYfcoxEfMVj-152" value="&lt;font style=&quot;font-size: 16px;&quot; color=&quot;#FF0000&quot;&gt;&lt;b&gt;33&lt;/b&gt;&lt;/font&gt;" style="text;whiteSpace=wrap;html=1;" parent="1" vertex="1">
          <mxGeometry x="588" y="1155" width="22" height="30" as="geometry" />
        </mxCell>
        <mxCell id="aSkTq7z4yNYfcoxEfMVj-153" value="&lt;font style=&quot;font-size: 16px;&quot; color=&quot;#FF0000&quot;&gt;&lt;b&gt;34&lt;/b&gt;&lt;/font&gt;" style="text;whiteSpace=wrap;html=1;" parent="1" vertex="1">
          <mxGeometry x="333" y="945" width="22" height="30" as="geometry" />
        </mxCell>
        <mxCell id="aSkTq7z4yNYfcoxEfMVj-154" value="&lt;font style=&quot;font-size: 16px;&quot; color=&quot;#FF0000&quot;&gt;&lt;b&gt;35&lt;/b&gt;&lt;/font&gt;" style="text;whiteSpace=wrap;html=1;" parent="1" vertex="1">
          <mxGeometry x="224" y="975" width="22" height="30" as="geometry" />
        </mxCell>
        <mxCell id="aSkTq7z4yNYfcoxEfMVj-155" value="&lt;font style=&quot;font-size: 16px;&quot; color=&quot;#FF0000&quot;&gt;&lt;b&gt;36&lt;/b&gt;&lt;/font&gt;" style="text;whiteSpace=wrap;html=1;" parent="1" vertex="1">
          <mxGeometry x="202" y="1060" width="22" height="30" as="geometry" />
        </mxCell>
        <mxCell id="aSkTq7z4yNYfcoxEfMVj-156" value="&lt;font style=&quot;font-size: 16px;&quot; color=&quot;#FF0000&quot;&gt;&lt;b&gt;37&lt;/b&gt;&lt;/font&gt;" style="text;whiteSpace=wrap;html=1;" parent="1" vertex="1">
          <mxGeometry x="224" y="1125" width="22" height="30" as="geometry" />
        </mxCell>
        <mxCell id="aSkTq7z4yNYfcoxEfMVj-157" value="&lt;font style=&quot;font-size: 16px;&quot; color=&quot;#FF0000&quot;&gt;&lt;b&gt;38&lt;/b&gt;&lt;/font&gt;" style="text;whiteSpace=wrap;html=1;" parent="1" vertex="1">
          <mxGeometry x="128" y="1065" width="22" height="30" as="geometry" />
        </mxCell>
        <mxCell id="aSkTq7z4yNYfcoxEfMVj-158" value="&lt;font style=&quot;font-size: 16px;&quot; color=&quot;#FF0000&quot;&gt;&lt;b&gt;39&lt;/b&gt;&lt;/font&gt;" style="text;whiteSpace=wrap;html=1;" parent="1" vertex="1">
          <mxGeometry x="95" y="1093" width="22" height="30" as="geometry" />
        </mxCell>
      </root>
    </mxGraphModel>
  </diagram>
</mxfile>
